<?xml version="1.0" standalone="no"?>
<!DOCTYPE svg PUBLIC "-//W3C//DTD SVG 20010904//EN"
 "http://www.w3.org/TR/2001/REC-SVG-20010904/DTD/svg10.dtd">
<svg version="1.0" xmlns="http://www.w3.org/2000/svg"
 width="260.000000pt" height="260.000000pt" viewBox="0 0 260.000000 260.000000"
 preserveAspectRatio="xMidYMid meet">
<metadata>
Created by potrace 1.11, written by Peter Selinger 2001-2013
</metadata>
<g transform="translate(0.000000,260.000000) scale(0.100000,-0.100000)"
fill="#000000" stroke="none">
<path d="M1038 2589 c-8 -6 -1 -7 20 -4 17 3 32 2 32 -3 0 -4 -10 -8 -22 -9
-105 -4 -138 -7 -138 -15 0 -5 6 -6 13 -2 8 5 9 4 2 -4 -5 -6 -31 -12 -57 -13
-26 -2 -45 -6 -42 -11 3 -5 11 -5 17 -2 7 4 9 3 4 -1 -4 -5 -24 -10 -44 -12
-20 -2 -43 -12 -50 -21 -10 -11 -12 -12 -7 -2 6 12 4 13 -7 3 -7 -7 -21 -13
-30 -13 -10 0 -21 -5 -25 -12 -5 -7 -2 -8 7 -3 8 5 11 4 6 0 -4 -5 -18 -10
-30 -12 -12 -2 -27 -10 -33 -18 -6 -8 -24 -15 -40 -15 -20 0 -25 -3 -15 -9 16
-10 3 -20 -32 -23 -14 -1 -23 -6 -21 -10 3 -5 10 -5 16 -2 7 4 8 2 4 -5 -4 -6
-11 -9 -16 -6 -5 3 -18 -3 -30 -15 -11 -11 -24 -20 -30 -20 -6 0 -10 -7 -10
-15 0 -8 -3 -14 -7 -14 -20 3 -34 -2 -28 -10 7 -12 -29 -33 -39 -23 -4 3 -4
-2 0 -11 4 -12 2 -17 -7 -15 -7 2 -14 -3 -15 -9 -3 -27 -5 -28 -14 -13 -8 13
-10 12 -10 -3 0 -10 -4 -15 -10 -12 -6 4 -7 -1 -3 -11 4 -12 3 -15 -5 -10 -7
4 -12 2 -12 -4 0 -6 -5 -8 -12 -4 -10 6 -10 4 0 -8 10 -13 9 -16 -9 -21 -13
-4 -18 -10 -13 -18 5 -9 2 -10 -9 -6 -12 5 -17 1 -17 -13 0 -11 -7 -20 -16
-20 -8 0 -13 -4 -9 -9 3 -5 0 -13 -6 -16 -5 -4 -8 -14 -4 -22 4 -13 3 -14 -10
-3 -13 11 -15 9 -15 -14 0 -16 -5 -26 -15 -26 -9 0 -15 -9 -15 -25 0 -14 -7
-28 -15 -31 -8 -4 -15 -15 -15 -26 0 -14 -5 -18 -15 -14 -8 3 -14 2 -14 -2 1
-4 1 -20 0 -35 -1 -20 -5 -26 -14 -21 -7 5 -6 0 3 -11 14 -17 13 -18 -2 -12
-15 5 -18 1 -18 -28 0 -18 -4 -37 -10 -40 -5 -3 -10 -1 -10 6 0 7 -3 9 -6 6
-4 -4 -1 -14 7 -24 9 -11 10 -14 2 -9 -10 5 -13 -5 -14 -41 0 -36 -3 -43 -9
-28 -5 11 -9 16 -10 10 -1 -5 -3 -19 -5 -30 -2 -11 -5 -42 -6 -68 -2 -34 -6
-46 -16 -43 -10 4 -12 -42 -12 -231 0 -134 4 -230 9 -223 5 8 6 18 3 24 -3 5
-1 6 5 3 11 -8 11 -25 -1 -44 -5 -8 -4 -13 2 -13 6 0 11 -13 11 -28 0 -15 6
-34 13 -41 9 -11 9 -12 0 -7 -9 5 -12 0 -11 -18 1 -13 6 -22 10 -20 5 3 5 11
2 17 -4 7 -3 8 1 4 10 -9 14 -28 17 -78 2 -25 6 -35 15 -32 12 5 19 -30 14
-61 -1 -5 5 -6 14 -3 12 5 15 -2 15 -33 0 -31 3 -38 15 -33 9 3 15 2 14 -3 -5
-28 3 -54 16 -54 13 0 21 -26 16 -54 -1 -5 5 -3 14 4 9 7 15 9 14 4 -4 -25 3
-44 16 -44 13 0 21 -26 16 -53 -1 -5 3 -6 9 -2 6 3 7 12 4 18 -4 7 -3 8 2 4 5
-5 9 -14 9 -20 1 -7 7 -11 15 -9 11 3 11 0 -1 -14 -12 -16 -12 -17 4 -11 12 5
17 1 17 -13 0 -11 7 -20 15 -20 8 0 15 -4 15 -10 0 -13 37 -50 50 -50 6 0 9
-3 8 -7 -3 -8 38 -53 47 -53 3 0 19 -14 35 -30 16 -17 36 -30 45 -30 8 0 15
-5 15 -10 0 -6 12 -15 26 -20 14 -6 22 -14 19 -20 -3 -5 3 -10 14 -10 12 0 30
-9 42 -21 11 -11 27 -18 34 -15 8 3 17 0 21 -6 4 -6 3 -8 -4 -4 -6 3 -13 3
-16 -2 -4 -7 21 -12 71 -15 7 0 10 -4 7 -9 -3 -5 -10 -5 -16 -2 -7 4 -8 2 -4
-4 4 -7 19 -12 34 -12 15 0 34 -5 42 -11 13 -9 12 -10 -3 -5 -11 3 -16 2 -12
-4 3 -6 22 -10 41 -10 20 0 42 -7 50 -15 9 -8 26 -16 40 -16 13 -1 32 -2 42
-2 9 -1 21 -7 25 -14 5 -8 29 -13 62 -13 30 0 55 -5 57 -11 6 -17 71 -19 90
-2 12 11 18 11 24 2 4 -7 3 -10 -4 -5 -6 3 -13 2 -17 -4 -9 -15 48 -13 64 3 8
6 11 7 8 1 -4 -7 5 -11 24 -12 27 -1 29 1 17 16 -9 13 -7 12 10 -2 22 -19 22
-19 44 0 19 15 20 16 9 2 -12 -16 -11 -18 13 -18 14 0 26 5 26 11 0 5 -6 7
-12 3 -7 -4 -10 -3 -5 1 12 14 91 15 99 2 6 -9 8 -9 8 1 0 8 16 12 45 12 29 0
45 4 45 13 0 8 4 7 10 -3 8 -13 10 -12 10 3 0 13 9 17 41 17 28 0 47 6 56 18
14 16 14 16 9 -3 -6 -19 -5 -19 8 -3 7 10 25 18 39 18 28 0 44 15 25 24 -7 2
-4 4 7 4 46 -2 75 3 75 13 0 5 -6 7 -12 3 -9 -5 -10 -4 -3 4 6 6 21 12 35 14
14 2 24 8 23 14 -1 5 10 11 25 12 14 1 30 9 35 17 4 8 17 15 27 15 10 0 22 5
26 12 4 7 3 8 -4 4 -7 -4 -12 -2 -12 3 0 6 11 11 25 11 16 0 25 6 25 16 0 10
6 14 15 10 14 -5 20 5 16 27 -1 4 7 7 16 5 12 -2 18 3 17 14 -1 10 4 14 12 11
8 -3 14 0 14 7 0 6 4 9 9 5 6 -3 15 4 21 15 6 11 15 18 21 15 5 -4 8 -3 7 2
-3 9 33 48 53 56 10 4 10 6 2 6 -7 1 -13 6 -13 11 0 6 5 9 12 8 7 -2 12 2 13
9 0 6 4 15 9 20 5 4 6 3 2 -4 -3 -6 -3 -14 2 -17 5 -3 9 1 10 9 1 8 3 21 4 29
1 8 7 12 15 9 8 -3 13 3 13 17 0 16 4 20 15 16 10 -4 15 1 15 14 0 11 4 20 10
20 5 0 6 7 3 17 -4 11 -3 14 5 9 8 -5 12 0 12 14 0 12 5 18 10 15 6 -4 13 8
17 25 3 18 12 34 19 37 8 3 14 11 14 18 0 7 5 15 12 17 6 2 13 15 15 28 2 13
9 28 16 32 9 6 9 8 0 8 -7 0 -13 4 -13 10 0 5 6 7 13 4 12 -4 17 16 20 77 1 9
7 15 14 12 12 -5 18 30 16 85 -1 8 5 11 14 8 9 -4 14 0 12 12 -5 53 2 143 11
137 6 -4 7 -12 4 -18 -4 -7 -3 -8 2 -4 12 11 15 289 3 282 -5 -4 -9 -1 -9 4 0
6 5 11 10 11 6 0 10 5 10 11 0 6 -6 9 -12 6 -10 -3 -14 19 -16 86 -3 92 -7
111 -21 103 -4 -3 -8 1 -8 8 0 9 7 12 16 9 13 -5 13 -3 -1 8 -10 8 -18 30 -20
52 -2 37 -12 48 -21 25 -3 -7 -5 4 -4 25 0 22 -5 42 -13 47 -7 5 -15 19 -18
32 -2 13 -5 28 -6 35 -1 7 -6 16 -11 20 -4 4 -5 2 0 -6 5 -9 4 -12 -3 -7 -7 4
-12 20 -12 36 0 16 -7 33 -15 38 -9 4 -17 18 -18 29 0 13 -6 19 -14 16 -11 -5
-18 14 -14 40 0 4 -6 7 -14 7 -8 0 -15 9 -15 20 0 14 -5 18 -17 13 -11 -4 -14
-3 -9 6 5 8 0 18 -13 27 -12 8 -21 24 -21 35 0 10 -7 19 -15 19 -8 0 -15 7
-15 15 0 8 -7 15 -15 15 -8 0 -15 7 -15 15 0 8 -7 15 -15 15 -8 0 -15 5 -15
10 0 13 -37 50 -50 50 -5 0 -10 7 -10 15 0 8 -7 15 -15 15 -8 0 -15 8 -15 17
0 15 -2 14 -15 -3 -11 -13 -13 -14 -9 -3 8 25 -27 55 -58 50 -5 0 -8 6 -8 14
0 13 -19 20 -44 16 -5 -1 -3 5 4 14 11 13 10 15 -4 9 -9 -3 -16 -2 -16 4 0 5
-8 9 -17 8 -10 0 -17 5 -16 12 3 11 -15 17 -45 13 -7 -1 -11 4 -10 11 2 8 -9
14 -30 16 -18 2 -30 7 -27 12 3 5 1 11 -5 15 -5 3 -10 0 -10 -7 0 -10 -2 -10
-8 -1 -4 6 -19 13 -34 15 -15 2 -31 8 -35 13 -5 4 -2 5 6 0 9 -5 12 -4 7 3 -4
7 -25 12 -47 12 -24 0 -38 4 -37 11 2 7 -18 14 -52 16 -30 3 -58 10 -62 16 -6
9 -8 9 -8 0 0 -7 -4 -13 -10 -13 -5 0 -7 6 -4 13 3 8 -2 14 -10 14 -8 0 -12
-7 -9 -16 4 -13 2 -13 -10 1 -13 16 -36 18 -230 17 -118 -1 -221 -6 -229 -10z
m284 -92 c6 -9 8 -9 8 1 0 6 5 12 11 12 6 0 9 -6 6 -12 -3 -10 22 -14 106 -15
82 -2 114 -6 127 -18 9 -8 33 -15 53 -15 27 0 37 -4 37 -16 0 -8 5 -12 10 -9
6 4 7 11 4 17 -4 7 -2 8 5 4 6 -4 9 -12 6 -17 -4 -5 5 -10 19 -10 39 -2 44 -3
53 -13 5 -5 2 -6 -6 -1 -9 5 -12 4 -7 -3 4 -7 18 -12 32 -12 14 0 32 -7 40
-15 9 -8 24 -15 34 -15 10 0 20 -7 24 -15 3 -8 15 -15 27 -15 13 0 19 -5 16
-13 -3 -8 3 -14 16 -14 11 -1 25 -9 29 -18 5 -8 18 -15 28 -15 11 0 20 -5 20
-11 0 -5 -5 -7 -12 -3 -7 4 -8 3 -4 -5 4 -6 11 -9 16 -6 5 3 11 1 15 -5 4 -6
11 -7 17 -4 7 5 9 1 5 -9 -5 -12 -1 -17 13 -17 11 0 20 -7 20 -15 0 -8 7 -15
15 -15 8 0 15 -7 15 -15 0 -8 5 -15 10 -15 6 0 19 -9 30 -20 11 -11 20 -24 20
-30 0 -5 7 -10 16 -10 8 0 13 -4 10 -8 -3 -5 6 -19 20 -31 14 -12 22 -26 19
-31 -3 -6 1 -10 9 -10 9 0 16 -9 16 -20 0 -11 7 -20 15 -20 8 0 15 -3 14 -7
-3 -18 14 -52 22 -47 8 4 14 -34 10 -59 -1 -5 3 -6 9 -2 6 3 7 11 4 17 -4 7
-2 8 4 4 7 -4 12 -14 12 -23 0 -9 7 -24 15 -33 9 -10 16 -33 17 -53 1 -20 6
-35 12 -34 6 1 12 -14 14 -33 2 -19 10 -40 17 -46 9 -6 15 -31 16 -58 2 -34 6
-46 18 -46 13 -1 12 -4 -4 -17 -15 -12 -16 -14 -3 -10 11 4 17 1 16 -11 -2
-81 6 -171 16 -165 6 3 5 0 -1 -8 -17 -17 -18 -83 -1 -73 7 5 8 3 2 -7 -9 -15
-10 -25 -15 -133 -2 -44 -8 -70 -16 -73 -8 -3 -13 -22 -13 -45 0 -22 -7 -46
-15 -54 -13 -13 -18 -41 -14 -71 0 -3 -6 -10 -15 -15 -9 -5 -16 -22 -16 -38 0
-16 -5 -32 -12 -36 -7 -5 -8 -2 -3 7 5 8 4 11 -1 6 -10 -9 -11 -14 -13 -54 -1
-22 -3 -25 -11 -13 -5 8 -10 12 -11 8 -1 -5 -3 -12 -4 -18 -1 -5 -3 -17 -4
-26 0 -10 -7 -14 -15 -11 -10 4 -14 0 -11 -14 4 -17 -6 -24 -28 -20 -5 1 -6
-3 -2 -9 3 -6 12 -8 18 -4 7 3 5 0 -4 -8 -8 -7 -18 -21 -22 -31 -4 -11 -12
-15 -19 -11 -8 5 -9 2 -5 -9 4 -11 1 -17 -9 -17 -16 0 -35 -39 -26 -54 3 -5 0
-6 -7 -2 -6 4 -8 13 -5 19 4 7 3 8 -2 4 -9 -9 -10 -13 -13 -42 0 -8 -4 -14 -8
-14 -22 4 -32 -3 -27 -16 4 -9 0 -15 -10 -15 -9 0 -16 -8 -17 -17 0 -15 -2
-15 -9 2 -8 18 -9 18 -9 2 -1 -11 -10 -21 -21 -24 -11 -3 -17 -9 -14 -14 5 -8
-10 -13 -29 -10 -5 1 -6 -3 -3 -8 8 -12 -18 -33 -29 -23 -5 4 -5 -1 -2 -10 5
-13 1 -18 -12 -18 -10 0 -21 -7 -25 -15 -3 -8 -17 -15 -31 -15 -14 0 -25 -6
-25 -14 0 -7 -14 -16 -31 -20 -17 -3 -28 -10 -24 -16 3 -5 -3 -10 -15 -10 -12
0 -28 -7 -36 -15 -9 -8 -26 -15 -39 -15 -13 0 -28 -7 -33 -16 -5 -9 -12 -15
-16 -14 -17 6 -86 -12 -81 -20 4 -6 -13 -10 -40 -10 -34 0 -46 -4 -42 -13 3
-9 -17 -13 -76 -15 -45 -2 -88 -8 -96 -15 -12 -9 -13 -9 -7 0 5 9 0 13 -14 13
-13 0 -19 -4 -14 -12 5 -7 3 -8 -7 -2 -8 5 -50 9 -94 11 -122 3 -216 11 -223
19 -4 4 3 4 16 1 12 -3 22 -1 22 4 0 8 -57 14 -105 10 -17 -2 -17 0 -5 8 13 9
13 11 -2 12 -10 1 -22 3 -28 4 -5 1 -22 3 -36 4 -14 0 -22 5 -19 11 3 5 -7 12
-22 16 -15 4 -36 14 -46 22 -16 15 -17 14 -11 -4 6 -18 6 -18 -7 -1 -8 10 -24
19 -36 20 -12 0 -19 5 -17 9 3 5 10 5 16 2 7 -4 8 -2 4 4 -4 6 -13 9 -20 6 -7
-3 -21 2 -30 11 -9 9 -29 20 -44 25 -15 4 -26 12 -24 19 1 6 -5 12 -13 12 -35
3 -40 5 -37 17 2 11 -11 17 -32 13 -5 -1 -3 5 4 14 7 9 9 15 4 14 -23 -4 -45
2 -39 12 4 6 -2 13 -14 16 -12 3 -21 12 -21 19 0 8 -4 14 -10 14 -14 0 -50 37
-42 45 3 3 -4 8 -16 12 -12 3 -22 12 -22 19 0 8 -7 14 -15 14 -8 0 -16 7 -16
15 -3 29 -4 33 -13 42 -5 5 -6 3 -2 -4 4 -7 2 -13 -3 -13 -6 0 -11 12 -11 26
0 14 -4 23 -10 19 -12 -7 -30 35 -22 50 3 6 -1 5 -9 -2 -11 -9 -14 -7 -16 14
0 14 -7 30 -13 37 -10 8 -11 8 -5 -3 5 -9 4 -12 -3 -7 -7 4 -12 18 -12 31 0
12 -7 25 -15 29 -9 3 -15 18 -15 36 0 16 -4 30 -9 30 -10 0 -14 10 -25 63 -4
15 -11 25 -16 22 -10 -6 -11 4 -12 78 0 20 -5 40 -11 44 -5 3 -7 1 -3 -5 3 -6
2 -14 -4 -17 -6 -4 -10 -3 -9 2 1 4 1 38 0 76 -1 46 -5 67 -13 67 -9 0 -14 26
-15 90 -2 57 1 90 8 90 6 0 7 -5 3 -12 -4 -6 -3 -9 2 -5 15 9 11 122 -5 119
-7 -1 -10 2 -6 8 3 6 11 8 16 5 5 -4 9 16 9 45 0 38 3 49 13 44 9 -6 9 -4 -1
8 -10 13 -10 18 -1 24 8 5 10 3 4 -7 -5 -8 -5 -11 0 -7 5 5 10 23 12 40 6 62
12 90 19 96 4 4 4 -1 1 -11 -4 -11 -3 -16 3 -12 6 3 10 22 10 41 0 22 6 37 15
40 8 4 15 15 15 26 0 11 6 32 14 46 8 15 19 38 25 52 6 14 9 17 6 7 -3 -10 -1
-15 5 -12 6 3 10 17 10 31 0 15 6 24 15 24 8 0 14 3 14 8 -3 19 2 33 10 27 5
-3 12 -1 16 5 3 5 -2 11 -12 11 -17 1 -17 2 -1 6 10 2 18 11 18 19 0 8 5 12
11 9 6 -4 13 2 16 14 3 12 12 21 19 21 8 0 13 3 13 8 -3 19 2 32 13 30 7 -2
12 2 13 9 0 7 6 18 14 25 12 11 13 11 6 -1 -5 -10 -4 -12 4 -7 6 4 9 11 7 15
-6 9 40 52 47 44 3 -2 10 5 17 16 6 12 15 19 21 16 5 -4 9 1 9 9 0 9 7 16 15
16 8 0 15 7 15 16 0 8 4 13 9 10 11 -7 33 19 23 28 -4 4 -2 7 3 6 25 -5 56 1
50 10 -6 10 9 19 42 25 10 1 17 8 15 14 -2 9 33 16 60 12 4 0 5 6 2 14 -5 11
1 15 21 15 14 0 24 4 21 9 -7 11 18 21 55 21 21 0 29 5 30 18 0 10 3 12 6 5 2
-7 9 -13 14 -13 6 0 7 5 4 10 -5 9 22 13 87 13 10 0 15 4 12 8 -3 5 -9 7 -14
4 -5 -3 -11 -1 -15 4 -6 11 27 7 47 -5 7 -4 8 -3 4 4 -8 13 -5 13 136 16 42 0
79 4 82 7 3 3 -21 5 -55 4 -33 -1 -56 1 -51 4 20 12 156 10 164 -2z m113 3 c3
-6 -1 -7 -9 -4 -18 7 -21 14 -7 14 6 0 13 -4 16 -10z m-1405 -994 c0 -3 -4 -8
-10 -11 -5 -3 -10 -1 -10 4 0 6 5 11 10 11 6 0 10 -2 10 -4z m75 -95 c0 -16
-3 -27 -7 -25 -6 4 -5 29 1 52 4 11 7 -3 6 -27z m2481 -230 c0 -16 -4 -27 -7
-25 -4 2 -6 12 -4 22 2 9 4 20 4 25 1 4 3 7 5 7 2 0 3 -13 2 -29z m-121 -441
c3 -5 1 -10 -4 -10 -6 0 -11 5 -11 10 0 6 2 10 4 10 3 0 8 -4 11 -10z m-1335
-720 c0 -5 -2 -10 -4 -10 -3 0 -8 5 -11 10 -3 6 -1 10 4 10 6 0 11 -4 11 -10z
m40 2 c0 -5 -7 -9 -15 -9 -8 0 -12 4 -9 9 7 10 24 10 24 0z"/>
<path d="M1555 2460 c3 -5 8 -10 11 -10 2 0 4 5 4 10 0 6 -5 10 -11 10 -5 0
-7 -4 -4 -10z"/>
<path d="M1134 2349 c-2 -4 10 -5 26 -4 17 1 30 -1 30 -5 0 -11 -51 -7 -69 4
-10 6 -12 5 -7 -2 5 -9 -8 -12 -44 -12 -28 0 -49 -4 -46 -9 3 -5 -1 -12 -10
-15 -10 -4 -13 -2 -8 7 5 9 4 9 -7 0 -7 -7 -24 -13 -37 -13 -14 0 -30 -7 -36
-15 -6 -8 -25 -16 -42 -17 -23 -1 -30 -6 -26 -17 3 -8 1 -12 -4 -9 -14 9 -56
-11 -49 -22 4 -6 3 -10 -2 -9 -27 5 -53 -3 -53 -16 0 -9 -9 -15 -24 -15 -14 0
-28 -5 -32 -12 -5 -7 -3 -8 6 -3 9 5 11 4 6 -3 -4 -7 -16 -12 -26 -12 -23 0
-35 -16 -18 -23 8 -3 6 -6 -5 -6 -10 -1 -31 -16 -48 -33 -16 -18 -29 -28 -30
-23 0 6 -4 0 -10 -13 -5 -13 -13 -21 -18 -18 -5 3 -11 -3 -14 -14 -3 -11 -11
-19 -18 -18 -7 2 -13 -2 -14 -8 0 -6 -8 -18 -18 -28 -9 -10 -15 -22 -12 -27 4
-5 -1 -6 -10 -3 -9 4 -15 3 -14 -2 4 -21 -2 -35 -11 -29 -6 4 -7 -1 -3 -11 4
-12 3 -15 -5 -10 -11 7 -16 -7 -15 -42 1 -10 -2 -10 -13 -1 -11 9 -14 7 -14
-14 0 -14 -5 -27 -12 -29 -10 -4 -17 -23 -20 -55 -1 -7 -7 -13 -15 -13 -8 0
-14 -12 -14 -30 -2 -43 -3 -47 -13 -57 -5 -4 -6 -3 -2 4 3 6 3 14 -2 17 -8 5
-14 -34 -15 -101 -1 -17 -5 -29 -9 -27 -5 3 -5 10 -2 16 4 6 3 8 -3 5 -5 -3
-11 -32 -12 -64 -1 -32 -8 -61 -14 -65 -9 -6 -8 -8 2 -8 11 0 11 -3 0 -17 -10
-11 -10 -14 -1 -9 6 4 12 2 12 -3 0 -6 -6 -11 -12 -11 -9 0 -9 -3 -3 -8 12 -8
16 -82 5 -82 -4 0 -7 16 -5 35 1 19 -1 33 -4 29 -12 -11 -8 -85 4 -80 15 5 16
-25 1 -43 -6 -9 -7 -12 -1 -9 7 4 12 -11 13 -40 4 -86 11 -144 17 -150 4 -4 5
8 2 26 -3 17 -2 30 2 28 4 -3 8 -22 9 -43 3 -56 12 -93 23 -93 5 0 9 -19 9
-42 0 -39 1 -40 14 -22 11 14 14 15 14 4 -3 -42 3 -61 15 -54 7 5 6 0 -3 -11
-14 -17 -13 -18 3 -12 13 5 17 1 17 -19 0 -14 4 -23 9 -19 11 6 26 -32 22 -54
-1 -7 2 -10 9 -6 7 4 14 -2 17 -14 3 -11 9 -18 14 -15 5 3 9 0 9 -7 0 -6 8
-18 17 -26 12 -10 13 -12 3 -8 -8 4 -6 -1 4 -9 11 -9 25 -16 30 -16 6 0 4 -5
-4 -10 -13 -8 -12 -10 3 -10 9 0 17 -7 17 -15 0 -8 5 -15 10 -15 14 0 50 -37
50 -51 0 -6 7 -9 15 -5 9 3 15 0 15 -10 0 -8 4 -12 10 -9 6 3 10 1 10 -5 0 -6
8 -14 18 -17 9 -4 27 -17 40 -30 12 -13 22 -21 22 -17 0 3 6 1 13 -5 8 -6 17
-8 20 -4 4 3 7 -1 7 -10 0 -12 8 -17 26 -17 14 0 22 -4 19 -10 -5 -9 16 -18
58 -24 9 -1 20 -6 24 -11 4 -4 3 -5 -4 -1 -6 3 -14 3 -17 -2 -4 -7 24 -12 81
-15 6 0 9 -5 7 -11 -3 -7 13 -12 38 -14 65 -4 79 -7 86 -19 4 -6 36 -12 72
-14 36 -1 71 -7 79 -13 11 -8 13 -8 7 1 -5 9 0 12 18 11 15 -1 26 -6 26 -10 0
-4 5 -8 11 -8 5 0 8 4 5 9 -3 5 16 9 42 8 118 0 193 6 189 17 -4 11 11 13 99
19 14 1 20 6 17 14 -4 9 4 13 25 13 18 0 32 6 36 16 3 9 13 14 21 10 8 -3 21
2 30 10 8 9 15 11 15 5 0 -6 4 -11 10 -11 5 0 7 7 4 15 -4 10 0 15 15 15 12 0
21 5 21 11 0 5 5 7 10 4 6 -3 10 -1 10 4 0 6 8 11 18 11 10 0 25 9 35 20 10
12 22 18 27 15 6 -3 10 -2 10 3 0 20 -52 23 -74 5 -14 -12 -17 -13 -9 -2 11
14 6 15 -42 14 -31 -1 -59 -6 -63 -10 -4 -5 -2 -5 5 -1 6 3 14 3 17 -2 2 -4
-60 -8 -140 -8 -79 0 -144 2 -144 6 0 4 18 6 40 5 22 -1 38 0 35 3 -3 3 -58 7
-123 9 -193 6 -192 6 -180 20 11 14 7 16 -34 13 -18 -1 -28 3 -28 12 0 20 102
18 108 -2 2 -11 1 -12 -5 -3 -6 8 -14 9 -23 3 -13 -8 -12 -10 3 -10 12 0 16
-5 11 -12 -6 -10 -4 -10 7 -1 7 7 38 13 70 13 37 0 59 5 62 13 4 9 6 9 6 0 1
-17 48 -17 54 0 4 9 6 9 6 0 1 -7 13 -13 27 -13 14 0 23 4 20 8 -3 5 1 9 9 9
8 0 12 -4 9 -9 -3 -4 0 -8 5 -8 12 0 13 5 15 70 1 25 5 51 10 59 6 9 5 12 -1
8 -6 -4 -9 4 -7 21 1 14 8 28 13 30 6 2 11 8 11 14 0 6 -7 8 -15 4 -8 -3 -15
-1 -15 4 0 6 7 10 15 10 8 0 15 5 15 11 0 5 -4 8 -8 5 -5 -3 -9 1 -9 9 0 8 4
12 9 9 4 -3 8 22 8 55 0 34 0 64 0 69 0 4 -24 7 -53 8 -30 0 -59 4 -66 8 -6 4
-18 2 -26 -4 -14 -12 -19 -7 -16 13 1 5 -8 2 -19 -6 -22 -15 -60 -12 -60 4 0
5 -5 9 -11 9 -5 0 -8 -4 -5 -9 7 -12 -55 -6 -63 6 -3 5 -32 9 -63 9 -39 -1
-58 3 -58 11 0 6 -4 15 -10 18 -6 3 -7 -1 -4 -9 3 -9 2 -16 -4 -16 -5 0 -12 7
-15 15 -4 8 -16 14 -29 13 -48 -2 -65 2 -65 17 0 13 15 15 88 13 48 -2 85 -6
83 -10 -2 -4 0 -10 6 -13 6 -4 9 -1 8 6 -2 8 7 14 20 15 12 1 22 -3 22 -8 0
-6 6 -8 13 -5 6 3 20 8 30 12 10 4 17 3 17 -5 0 -6 -4 -9 -9 -5 -5 3 -12 1
-15 -4 -4 -5 2 -8 11 -6 10 1 26 -2 35 -6 11 -6 19 -5 24 3 4 6 3 8 -3 5 -5
-3 -10 0 -10 8 0 12 3 12 15 3 21 -18 42 -19 35 -2 -3 10 0 12 10 8 9 -3 15
-11 13 -17 -1 -7 -1 -9 1 -4 3 4 10 4 15 1 7 -4 8 -2 4 4 -4 7 -4 13 1 13 36
6 53 5 53 -3 0 -5 6 -6 13 -1 6 4 26 9 42 9 17 1 35 2 41 3 6 0 10 23 10 55
-1 30 2 52 6 49 5 -2 8 1 8 6 0 6 -5 11 -11 11 -8 0 -8 4 -1 13 5 6 6 21 2 32
-8 21 -2 48 9 41 3 -2 7 15 8 37 2 29 0 37 -7 27 -5 -8 -6 -18 -3 -24 3 -5 1
-6 -4 -3 -14 9 -4 56 11 53 6 -2 8 -1 3 1 -4 3 -4 10 -1 15 4 7 2 8 -4 4 -7
-4 -12 -1 -12 9 0 9 4 13 10 10 6 -3 7 1 4 9 -3 9 -9 16 -13 16 -9 0 -8 30 0
45 3 6 0 21 -7 35 -8 14 -14 19 -14 10 0 -13 -1 -13 -10 0 -8 13 -10 13 -10 1
0 -11 -4 -9 -15 5 -8 10 -15 15 -14 9 3 -22 -2 -29 -11 -15 -5 8 -10 10 -10 5
0 -11 -266 -12 -277 -2 -3 4 -12 2 -20 -4 -17 -14 -17 2 0 21 10 12 9 12 -4 2
-9 -6 -20 -8 -24 -4 -5 4 -5 1 0 -7 5 -9 -1 -7 -19 4 -15 10 -26 13 -26 6 0
-6 5 -11 12 -11 6 0 8 -3 5 -6 -4 -4 -13 -1 -21 5 -12 10 -35 15 -104 20 -8 1
-10 6 -6 14 6 10 4 10 -7 0 -7 -7 -18 -13 -23 -13 -6 0 -5 4 2 9 11 6 9 9 -5
13 -29 8 -63 -9 -63 -31 0 -11 -3 -27 -7 -37 -5 -13 -3 -15 7 -9 9 5 11 4 6
-4 -4 -6 -12 -9 -17 -6 -10 7 -12 -20 -11 -215 0 -199 -4 -181 37 -177 20 3
38 0 41 -5 3 -5 11 -4 19 2 14 12 30 -2 17 -14 -4 -4 -7 -13 -7 -18 0 -6 -6
-13 -13 -16 -12 -4 -12 0 -2 19 l13 24 -23 -20 -23 -20 7 25 c3 14 3 19 0 13
-3 -7 -18 -13 -34 -13 -25 0 -36 -12 -44 -52 -4 -21 -14 -16 -10 6 3 17 0 26
-8 26 -9 0 -10 2 -2 8 15 9 -1 56 -16 47 -5 -3 -10 1 -10 9 0 8 5 18 12 22 7
5 8 3 3 -6 -5 -8 -4 -11 3 -6 13 8 4 68 -11 78 -9 6 -9 8 1 8 6 0 12 5 12 11
0 5 -4 8 -9 4 -6 -3 -10 49 -10 135 -1 80 3 139 8 136 5 -3 11 1 15 9 3 8 0
17 -6 21 -7 4 -8 3 -4 -4 4 -7 2 -12 -3 -12 -6 0 -11 7 -11 15 0 8 6 15 13 15
8 0 12 11 11 28 -2 41 -3 44 -14 37 -5 -3 -10 3 -10 14 0 14 5 19 16 14 11 -4
15 -1 12 13 -2 12 2 18 11 16 8 -2 11 3 8 13 -4 8 -2 15 3 15 6 0 9 3 9 8 -4
26 3 62 11 57 6 -3 11 3 11 14 1 12 3 26 4 31 1 6 3 18 4 27 1 15 2 15 14 -1
11 -15 13 -13 12 18 -1 20 2 36 7 36 4 0 7 3 7 8 -4 21 3 22 21 1 l20 -24 -14
29 c-15 30 -7 66 14 66 6 0 10 9 10 20 0 23 15 27 24 5 3 -8 0 -15 -6 -15 -6
0 -8 -3 -5 -7 4 -3 2 -13 -5 -20 -6 -8 -12 -29 -12 -46 -1 -24 -5 -31 -17 -29
-12 2 -16 -4 -14 -23 4 -36 -5 -66 -19 -58 -6 4 -4 -2 4 -12 9 -11 10 -16 3
-11 -13 7 -14 1 -17 -76 -1 -18 -4 -24 -12 -17 -14 11 -24 1 -17 -17 3 -8 10
-11 17 -7 6 4 5 0 -2 -9 -18 -23 7 -34 76 -33 28 0 52 -4 52 -9 0 -6 5 -5 11
1 7 7 22 8 38 4 14 -4 76 -7 138 -6 62 1 110 -2 107 -7 -3 -4 0 -8 5 -8 6 0
11 4 11 10 0 5 21 10 48 9 49 0 143 8 147 13 12 13 7 160 -5 153 -17 -10 -11
7 7 20 13 9 13 14 3 20 -9 5 -11 4 -6 -3 4 -7 2 -12 -3 -12 -6 0 -11 10 -12
23 -6 127 -5 145 7 162 15 20 16 12 17 -83 0 -13 5 -21 11 -19 7 3 13 -5 13
-17 9 -169 14 -193 35 -180 7 4 8 2 4 -4 -4 -6 -14 -8 -24 -5 -14 5 -13 2 4
-14 21 -21 94 -28 94 -10 0 4 5 5 12 1 8 -5 9 -1 4 12 -6 15 -5 16 5 7 7 -7
18 -9 28 -4 9 5 24 7 34 6 15 -3 21 6 19 26 -1 4 7 5 18 2 11 -3 35 4 53 16
19 12 44 21 56 21 11 0 20 5 18 12 -1 7 5 12 13 13 11 0 15 14 17 58 1 35 -2
55 -8 52 -5 -4 -6 -11 -3 -17 4 -6 2 -8 -4 -5 -5 4 -9 18 -8 31 2 14 -5 38
-15 53 -11 15 -19 36 -19 46 0 10 -4 16 -8 13 -5 -3 -9 1 -9 9 0 21 6 19 33
-11 25 -26 33 -50 12 -38 -7 4 -8 3 -4 -5 6 -9 11 -9 24 1 10 8 13 9 9 1 -4
-6 -3 -14 2 -18 6 -3 8 -12 5 -19 -3 -8 0 -17 7 -22 8 -5 10 -3 4 6 -6 9 -4
11 4 6 7 -5 10 -10 7 -13 -3 -3 -1 -14 5 -24 12 -23 60 -22 56 1 -1 8 4 14 12
12 12 -3 12 0 1 13 -11 13 -10 15 4 9 16 -6 19 3 19 59 0 20 13 23 20 5 3 -7
4 -3 4 10 -1 12 -7 22 -14 22 -7 0 -13 7 -13 15 0 9 -7 18 -15 21 -8 4 -12 10
-9 15 3 5 0 9 -6 9 -6 0 -8 4 -5 10 3 6 -1 7 -10 4 -9 -4 -15 -3 -14 2 5 28
-2 46 -16 40 -9 -3 -15 0 -15 10 0 8 -10 18 -22 23 -13 5 -23 12 -22 17 0 5
-6 15 -13 22 -10 10 -13 10 -13 1 0 -7 -3 -9 -7 -5 -5 4 -8 13 -8 19 0 7 -7
12 -15 12 -8 1 -14 6 -12 13 1 7 -9 12 -23 12 -18 0 -23 4 -19 15 4 9 0 15 -8
15 -8 0 -15 -6 -15 -12 -1 -22 -8 -43 -16 -49 -7 -5 -14 -26 -16 -51 -1 -5 -7
-8 -15 -8 -8 0 -16 -7 -20 -15 -3 -8 -14 -15 -25 -15 -11 0 -21 -5 -23 -12 -4
-10 -18 -15 -60 -20 -9 -1 -15 -5 -12 -9 5 -9 -34 -19 -80 -19 -34 0 -37 -2
-26 -16 8 -8 9 -14 4 -13 -21 4 -24 -2 -13 -22 9 -17 8 -23 -2 -30 -23 -15
-34 -10 -13 6 11 8 14 15 7 15 -7 0 -13 7 -13 15 0 8 -5 15 -11 15 -5 0 -8 4
-4 9 3 5 0 13 -6 17 -8 4 -9 3 -5 -4 9 -14 10 -14 -81 -16 -39 -1 -70 1 -68 4
2 3 -5 6 -15 6 -10 0 -17 -3 -14 -7 2 -4 -11 -6 -28 -4 -18 1 -34 7 -36 14 -2
6 -8 11 -13 11 -6 0 -8 -4 -5 -9 3 -5 -1 -12 -9 -15 -13 -4 -13 -2 -5 14 14
27 12 34 -6 19 -13 -10 -17 -10 -24 0 -5 9 -10 10 -14 3 -4 -6 2 -15 11 -21
10 -6 13 -11 7 -11 -5 0 -20 9 -32 20 -12 12 -22 17 -22 13 0 -5 -16 -8 -35
-9 -19 0 -35 5 -35 11 0 7 39 11 119 10 116 0 119 0 108 -20 -8 -17 -8 -18 4
-9 8 6 28 11 46 9 20 -1 30 2 27 10 -4 11 38 18 98 17 11 -1 15 5 11 16 -4 13
-2 12 10 -3 13 -16 16 -17 17 -4 0 8 -6 21 -12 29 -9 8 -5 8 10 -2 16 -11 33
-13 55 -8 18 4 40 6 50 4 9 -1 17 4 17 11 0 7 15 15 33 19 25 5 29 9 17 16
-13 8 -12 10 3 10 9 0 17 5 17 11 0 5 4 8 8 5 9 -5 14 20 15 89 0 31 -4 50
-11 51 -25 3 -27 5 -12 14 11 7 6 10 -22 10 -22 0 -40 6 -45 14 -7 13 -39 23
-81 25 -7 1 -10 6 -7 11 4 6 -14 10 -44 11 -69 2 -76 3 -74 14 1 6 -23 11 -53
12 -41 2 -53 -1 -48 -10 5 -9 3 -9 -7 1 -7 6 -37 12 -67 12 -40 0 -51 -3 -46
-12 6 -10 5 -10 -7 -1 -16 13 -97 14 -105 2z m196 -9 c0 -5 -2 -10 -4 -10 -3
0 -8 5 -11 10 -3 6 -1 10 4 10 6 0 11 -4 11 -10z m60 -354 c-7 -7 -13 -7 -20
0 -6 6 -3 10 10 10 13 0 16 -4 10 -10z m280 -366 c0 -5 -2 -10 -4 -10 -3 0 -8
5 -11 10 -3 6 -1 10 4 10 6 0 11 -4 11 -10z m-722 -695 c2 -26 -12 -34 -24
-13 -5 7 -3 8 6 3 9 -5 10 -2 5 14 -3 11 -3 21 2 21 5 0 10 -11 11 -25z m182
21 c0 -2 -7 -7 -16 -10 -8 -3 -12 -2 -9 4 6 10 25 14 25 6z m-199 -79 c-10 -9
-11 -8 -5 6 3 10 9 15 12 12 3 -3 0 -11 -7 -18z m256 -342 c0 -8 -4 -12 -9 -9
-5 3 -6 10 -3 15 9 13 12 11 12 -6z"/>
<path d="M1293 1971 c6 -9 12 -17 12 -18 0 -1 6 6 12 15 9 15 7 18 -13 18 -19
0 -21 -3 -11 -15z"/>
<path d="M1433 1965 c0 -8 4 -12 9 -9 5 3 6 10 3 15 -9 13 -12 11 -12 -6z"/>
<path d="M1040 1870 c-9 -6 -10 -10 -3 -10 6 0 15 5 18 10 8 12 4 12 -15 0z"/>
<path d="M2363 1805 c0 -8 4 -12 9 -9 5 3 6 10 3 15 -9 13 -12 11 -12 -6z"/>
<path d="M2247 1743 c3 -8 2 -13 -3 -12 -25 4 -34 -4 -35 -33 0 -18 -3 -27 -6
-20 -3 7 -15 -2 -30 -25 -25 -36 -27 -56 -21 -151 1 -7 6 -11 12 -9 8 3 12
-28 14 -97 2 -55 8 -105 13 -110 5 -6 9 -15 9 -20 0 -6 -5 -4 -10 4 -8 11 -10
5 -8 -25 2 -49 5 -56 23 -49 8 4 13 10 10 14 -3 5 -1 11 5 15 5 3 10 -2 11
-12 0 -16 1 -16 8 2 5 11 7 23 4 28 -2 4 2 7 10 7 8 0 17 10 21 23 5 18 8 20
16 7 7 -11 10 -5 11 25 0 22 3 34 6 28 5 -14 24 -18 22 -5 -5 29 3 54 14 49
10 -4 13 6 12 38 0 24 -6 49 -11 57 -6 7 -12 33 -13 58 -2 27 -9 48 -17 53
-13 7 -13 11 -2 25 10 12 10 14 1 8 -9 -5 -13 1 -13 20 0 15 -7 35 -15 44 -8
9 -15 30 -17 46 -1 17 -7 31 -14 31 -7 0 -10 -7 -7 -14z m99 -319 c1 -19 0
-33 -3 -30 -4 3 -7 22 -8 41 -2 20 0 34 3 31 3 -3 6 -22 8 -42z"/>
<path d="M1615 1740 c3 -5 8 -10 11 -10 2 0 4 5 4 10 0 6 -5 10 -11 10 -5 0
-7 -4 -4 -10z"/>
<path d="M2068 1743 c6 -2 18 -2 25 0 6 3 1 5 -13 5 -14 0 -19 -2 -12 -5z"/>
<path d="M2123 1588 c-2 -18 0 -20 7 -8 12 18 13 30 2 30 -4 0 -9 -10 -9 -22z"/>
<path d="M2038 1553 c-16 -8 -28 -19 -28 -24 0 -5 -6 -9 -12 -8 -7 1 -22 1
-33 0 -17 -1 -18 -3 -5 -11 13 -8 13 -10 -2 -11 -10 -1 -27 -3 -38 -4 -11 -1
-32 -3 -46 -4 -16 -1 -24 -6 -21 -13 3 -10 -15 -13 -74 -13 -44 0 -79 -3 -79
-7 0 -4 -6 -5 -13 -2 -10 3 -13 -10 -12 -53 0 -32 4 -64 9 -72 6 -10 5 -12 -2
-7 -7 4 -12 2 -12 -3 0 -6 5 -11 10 -11 6 0 10 -5 10 -11 0 -5 -4 -8 -8 -5 -9
5 -10 -43 -1 -59 5 -9 5 -31 -1 -37 -5 -7 -5 -100 0 -103 9 -6 7 -47 -3 -62
-5 -7 -3 -14 2 -14 6 -1 16 -2 21 -3 6 0 15 -8 20 -16 9 -13 10 -13 10 0 0 10
10 16 28 16 113 4 117 4 102 14 -12 8 -10 10 10 11 14 1 30 3 35 4 6 2 18 3
28 4 9 0 17 9 17 19 0 14 2 15 10 2 5 -8 10 -10 10 -3 0 6 11 10 26 8 17 -2
24 2 20 11 -3 9 0 11 11 7 10 -4 14 -2 10 4 -4 6 -1 11 6 10 33 -1 47 4 47 18
0 8 6 14 13 13 9 -2 12 33 14 145 1 81 -2 147 -7 147 -4 0 -11 7 -14 16 -5 14
-4 15 9 4 13 -11 14 -10 9 4 -3 9 -10 16 -14 16 -4 0 -7 8 -7 18 0 77 -9 88
-55 65z"/>
<path d="M1175 1499 c-3 -4 2 -6 10 -5 21 3 28 13 10 13 -9 0 -18 -4 -20 -8z"/>
<path d="M1256 1498 c3 -5 10 -6 15 -3 13 9 11 12 -6 12 -8 0 -12 -4 -9 -9z"/>
<path d="M1336 1498 c3 -5 10 -6 15 -3 13 9 11 12 -6 12 -8 0 -12 -4 -9 -9z"/>
<path d="M109 1268 c-5 -11 -4 -80 1 -83 3 -2 6 16 6 41 0 38 -3 52 -7 42z"/>
<path d="M2309 1093 c-1 -5 -1 -11 0 -15 0 -4 -8 -5 -19 -3 -13 2 -20 -2 -20
-11 0 -12 -18 -19 -42 -15 -4 0 -12 -8 -18 -18 -6 -13 -18 -18 -35 -16 -19 2
-23 -1 -15 -10 8 -9 6 -14 -5 -19 -10 -3 -13 -11 -9 -18 6 -10 5 -10 -7 -1
-11 9 -14 7 -15 -15 -2 -57 -9 -82 -21 -82 -8 0 -13 -12 -13 -30 0 -30 -13
-40 -25 -20 -4 6 -10 8 -15 5 -5 -3 -12 -1 -15 5 -4 6 -1 9 7 8 8 -2 14 9 16
30 3 28 7 33 23 29 10 -3 17 -1 13 4 -3 5 -12 9 -20 9 -8 0 -14 4 -14 10 0 5
5 9 11 7 6 -1 14 4 16 11 3 6 -3 12 -12 12 -9 0 -13 4 -10 10 4 6 -2 7 -17 1
-13 -4 -35 -8 -51 -7 -19 1 -26 -2 -23 -11 8 -19 -11 -16 -24 5 -10 16 -10 16
-8 -2 3 -17 -5 -19 -62 -21 -79 -3 -78 -3 -62 -14 8 -5 -2 -8 -27 -7 -23 0
-41 5 -41 10 0 5 -8 2 -18 -7 -21 -19 -34 -13 -25 11 3 10 -3 6 -15 -8 -14
-18 -21 -43 -23 -80 -1 -30 -6 -61 -12 -67 -5 -7 -7 -20 -3 -28 4 -11 2 -14
-6 -9 -7 5 -9 2 -5 -8 3 -9 1 -20 -5 -26 -7 -7 -6 -16 1 -30 7 -14 8 -23 1
-27 -6 -4 -8 -10 -6 -14 3 -4 0 -13 -5 -21 -6 -11 -8 -5 -4 18 3 17 2 32 -3
32 -4 0 -8 -31 -8 -70 l0 -70 34 0 c18 0 31 4 27 9 -3 5 -1 13 5 16 6 4 9 1 8
-6 -3 -14 39 -21 48 -8 2 4 -5 6 -17 4 -12 -2 -18 -1 -15 3 4 4 24 8 44 8 111
4 113 4 106 17 -6 8 -3 8 9 -1 9 -8 22 -12 29 -9 7 3 4 6 -7 6 -37 2 6 21 48
21 21 0 40 6 43 13 2 7 14 14 26 14 12 1 26 9 30 18 5 8 20 15 33 15 16 0 25
6 25 15 0 8 3 14 8 14 23 -4 34 3 28 17 -5 14 -4 15 9 4 12 -10 15 -10 15 4 0
10 5 14 10 11 6 -4 13 7 16 24 4 17 11 29 18 28 6 -1 12 11 14 26 2 16 10 31
18 34 8 3 14 13 14 23 0 10 7 20 15 24 9 3 15 19 15 41 0 24 4 35 15 35 8 0
14 3 14 8 -5 28 3 62 12 56 8 -4 8 -1 1 13 -7 13 -7 24 0 34 8 11 9 11 4 -3
-3 -10 -1 -18 5 -18 5 0 9 18 7 40 -1 22 -6 40 -10 40 -4 0 -9 -3 -9 -7z
m-258 -336 c-7 -7 -12 -1 -17 18 -5 18 -2 30 7 36 10 6 15 2 17 -17 2 -15 -1
-31 -7 -37z m-24 -20 c0 -8 -6 -14 -13 -14 -7 0 -10 6 -7 14 3 7 8 13 12 13 4
0 8 -6 8 -13z"/>
<path d="M1520 920 c-12 -7 -10 -9 7 -7 12 0 19 5 17 9 -6 10 -6 10 -24 -2z"/>
<path d="M1647 795 c-4 -8 -3 -16 1 -19 4 -3 9 4 9 15 2 23 -3 25 -10 4z"/>
<path d="M1607 473 c-3 -5 10 -9 29 -9 39 -2 39 5 1 12 -14 2 -28 1 -30 -3z"/>
<path d="M1685 470 c-5 -8 42 -7 49 1 3 3 -6 5 -20 5 -14 0 -27 -3 -29 -6z"/>
<path d="M1045 280 c3 -5 8 -10 11 -10 2 0 4 5 4 10 0 6 -5 10 -11 10 -5 0 -7
-4 -4 -10z"/>
<path d="M1520 140 c-9 -6 -10 -10 -3 -10 6 0 15 5 18 10 8 12 4 12 -15 0z"/>
<path d="M2315 2110 c3 -5 8 -10 11 -10 2 0 4 5 4 10 0 6 -5 10 -11 10 -5 0
-7 -4 -4 -10z"/>
<path d="M2584 1466 c1 -8 5 -18 8 -22 4 -3 5 1 4 10 -1 8 -5 18 -8 22 -4 3
-5 -1 -4 -10z"/>
<path d="M1620 39 c0 -5 5 -7 10 -4 6 3 10 8 10 11 0 2 -4 4 -10 4 -5 0 -10
-5 -10 -11z"/>
<path d="M1426 11 c-5 -8 40 -9 47 -1 3 3 -6 6 -19 6 -13 1 -26 -1 -28 -5z"/>
</g>
</svg>
